<svg xmlns="http://www.w3.org/2000/svg" width="500" height="500" viewBox="0 0 500 500">
  <!-- Background Circle with Gradient -->
  <defs>
    <linearGradient id="bgGradient" x1="0%" y1="0%" x2="100%" y2="100%">
      <stop offset="0%" stop-color="#4f46e5" />
      <stop offset="100%" stop-color="#9333ea" />
    </linearGradient>
    <!-- Text Gradient -->
    <linearGradient id="textGradient" x1="0%" y1="0%" x2="100%" y2="0%">
      <stop offset="0%" stop-color="#ffffff" />
      <stop offset="100%" stop-color="#f0f0ff" />
    </linearGradient>
  </defs>
  
  <!-- Main Circle -->
  <circle cx="250" cy="250" r="240" fill="url(#bgGradient)" />
  <circle cx="250" cy="250" r="230" fill="url(#bgGradient)" stroke="white" stroke-width="2" />
  
  <!-- Dumbbell Icon -->
  <g transform="translate(150, 140) scale(0.3)">
    <path d="M104 96H56c-13.3 0-24 10.7-24 24v104H8c-4.4 0-8 3.6-8 8v48c0 4.4 3.6 8 8 8h24v104c0 13.3 10.7 24 24 24h48c13.3 0 24-10.7 24-24V120c0-13.3-10.7-24-24-24zm528 128h-24V120c0-13.3-10.7-24-24-24h-48c-13.3 0-24 10.7-24 24v272c0 13.3 10.7 24 24 24h48c13.3 0 24-10.7 24-24V288h24c4.4 0 8-3.6 8-8v-48c0-4.4-3.6-8-8-8zM456 32h-48c-13.3 0-24 10.7-24 24v168H256V56c0-13.3-10.7-24-24-24h-48c-13.3 0-24 10.7-24 24v400c0 13.3 10.7 24 24 24h48c13.3 0 24-10.7 24-24V288h128v168c0 13.3 10.7 24 24 24h48c13.3 0 24-10.7 24-24V56c0-13.3-10.7-24-24-24z" fill="white" />
  </g>
  
  <!-- Company Name -->
  <text x="250" y="320" font-family="Arial, sans-serif" font-size="42" font-weight="bold" text-anchor="middle" fill="url(#textGradient)">GymMentorAI</text>
</svg> 